<svg id="Capa_1" data-name="Capa 1" xmlns="http://www.w3.org/2000/svg" viewBox="0 0 48 48"><defs><style>.cls-1{fill:#dc4435;}.cls-2{fill:#f1f2f2;}</style></defs><title>go</title><circle class="cls-1" cx="24" cy="24" r="24"/><path class="cls-2" d="M18.46,22.62v3.33H24a5.24,5.24,0,0,1-5.5,4.19,6.13,6.13,0,0,1,0-12.25,5.46,5.46,0,0,1,3.87,1.5L25,16.84a9.3,9.3,0,0,0-6.5-2.54,9.7,9.7,0,0,0,0,19.41c5.6,0,9.31-3.94,9.31-9.48a9,9,0,0,0-.15-1.61Z"/><path class="cls-2" d="M39.25,22.62H36.47V19.84H33.7v2.77H30.93v2.77H33.7v2.77h2.77V25.39h2.77Z"/></svg>