<svg id="Capa_1" data-name="Capa 1" xmlns="http://www.w3.org/2000/svg" viewBox="0 0 48 48"><defs><style>.cls-1{fill:#359dc3;}.cls-2{fill:#f1f2f2;}</style></defs><title>tw</title><circle class="cls-1" cx="24" cy="24" r="24"/><path class="cls-2" d="M38.81,14.81a12.13,12.13,0,0,1-3.49,1A6.1,6.1,0,0,0,38,12.41a12.16,12.16,0,0,1-3.86,1.47,6.08,6.08,0,0,0-10.36,5.54,17.25,17.25,0,0,1-12.53-6.35,6.08,6.08,0,0,0,1.88,8.12,6,6,0,0,1-2.75-.76s0,.05,0,.08a6.08,6.08,0,0,0,4.88,6,6.09,6.09,0,0,1-2.75.11,6.08,6.08,0,0,0,5.68,4.22,12.27,12.27,0,0,1-9,2.52A17.19,17.19,0,0,0,18.5,36C29.68,36,35.8,26.78,35.8,18.74q0-.39,0-.79a12.34,12.34,0,0,0,3-3.15Zm0,0"/></svg>